<svg id="Layer_1" data-name="Layer 1" xmlns="http://www.w3.org/2000/svg" viewBox="0 0 1600 1244.88"><defs><style>.cls-1{fill:#bdd0e5;}.cls-2{fill:#91aecc;}.cls-3{fill:#fad0ce;}.cls-4{fill:#e6ff2a;}.cls-5,.cls-8{fill:#296cb2;stroke:#296cb2;stroke-miterlimit:10;}.cls-5{stroke-width:0.11px;}.cls-6{fill:#f7ffbb;}.cls-7{fill:#ffead0;}.cls-8{stroke-width:0.12px;}</style></defs><title>color</title><path class="cls-1" d="M12.17,0h40a0,0,0,0,1,0,0V458a17,17,0,0,1-17,17h-6a17,17,0,0,1-17-17V0a0,0,0,0,1,0,0Z"/><path class="cls-2" d="M81,0h40a0,0,0,0,1,0,0V1008a17,17,0,0,1-17,17H98a17,17,0,0,1-17-17V0A0,0,0,0,1,81,0Z"/><path class="cls-3" d="M149.78,0h40a0,0,0,0,1,0,0V708a17,17,0,0,1-17,17h-6a17,17,0,0,1-17-17V0a0,0,0,0,1,0,0Z"/><path class="cls-4" d="M218.58,0h40a0,0,0,0,1,0,0V1208a17,17,0,0,1-17,17h-6a17,17,0,0,1-17-17V0A0,0,0,0,1,218.58,0Z"/><path class="cls-5" d="M493.8,0h40a0,0,0,0,1,0,0V708a17,17,0,0,1-17,17h-6a17,17,0,0,1-17-17V0A0,0,0,0,1,493.8,0Z"/><path class="cls-6" d="M287.39,0h40a0,0,0,0,1,0,0V558a17,17,0,0,1-17,17h-6a17,17,0,0,1-17-17V0A0,0,0,0,1,287.39,0Z"/><path class="cls-7" d="M356.19,0h40a0,0,0,0,1,0,0V833a17,17,0,0,1-17,17h-6a17,17,0,0,1-17-17V0a0,0,0,0,1,0,0Z"/><path class="cls-2" d="M425,0h40a0,0,0,0,1,0,0V1108a17,17,0,0,1-17,17h-6a17,17,0,0,1-17-17V0a0,0,0,0,1,0,0Z"/><path class="cls-1" d="M1147.28,0h40a0,0,0,0,1,0,0V1133a17,17,0,0,1-17,17h-6a17,17,0,0,1-17-17V0A0,0,0,0,1,1147.28,0Z"/><path class="cls-2" d="M1205.39,0h40a0,0,0,0,1,0,0V1208a17,17,0,0,1-17,17h-6a17,17,0,0,1-17-17V0A0,0,0,0,1,1205.39,0Z"/><path class="cls-3" d="M1263.5,0h40a0,0,0,0,1,0,0V983a17,17,0,0,1-17,17h-6a17,17,0,0,1-17-17V0A0,0,0,0,1,1263.5,0Z"/><path class="cls-4" d="M1321.62,0h40a0,0,0,0,1,0,0V858a17,17,0,0,1-17,17h-6a17,17,0,0,1-17-17V0A0,0,0,0,1,1321.62,0Z"/><path class="cls-8" d="M1554.07,0h40a0,0,0,0,1,0,0V853.29a17,17,0,0,1-17,17h-6a17,17,0,0,1-17-17V0A0,0,0,0,1,1554.07,0Z"/><path class="cls-6" d="M1379.73,0h40a0,0,0,0,1,0,0V258a17,17,0,0,1-17,17h-6a17,17,0,0,1-17-17V0a0,0,0,0,1,0,0Z"/><path class="cls-7" d="M1437.84,0h40a0,0,0,0,1,0,0V1083a17,17,0,0,1-17,17h-6a17,17,0,0,1-17-17V0a0,0,0,0,1,0,0Z"/><path class="cls-2" d="M1496,0h40a0,0,0,0,1,0,0V433a17,17,0,0,1-17,17h-6a17,17,0,0,1-17-17V0a0,0,0,0,1,0,0Z"/></svg>