<svg id="Layer_1" data-name="Layer 1" xmlns="http://www.w3.org/2000/svg" viewBox="0 0 200 200.75"><defs><style>.cls-1{fill:#75a1ce;}.cls-2{fill:#e2e31e;}.cls-3{fill:#bed1e6;}.cls-4{fill:#fbd1d0;}.cls-5{fill:#b2a1a0;}.cls-6{fill:#2c6db2;}.cls-7{fill:#92afcd;}.cls-8{fill:none;}</style></defs><title>resumepic</title><path class="cls-1" d="M153.4,90.63c5.07-10.26,12.31-19.4,20.36-27.67a254.5,254.5,0,0,1-28.6,73.93C147,120.8,145.93,105.71,153.4,90.63Z"/><path class="cls-2" d="M136.1,86c7.59-15.34,18.4-29,30.43-41.37a380.47,380.47,0,0,1-42.75,110.53C126.55,131.14,124.94,108.58,136.1,86Z"/><path class="cls-3" d="M76,120.45c6.15-.58,12.45-1.19,18.06-3.72,5.44-2.46,9.89-6.56,14.09-10.72A272.65,272.65,0,0,0,151,51.11c6.79-11.49,12.84-23.92,13.32-37.17.08-2.18-.09-4.61-1.69-6.14a8.3,8.3,0,0,0-3.66-1.74c-11.11-3-22.13-1.72-32.85,2-8.91,3.07-13.77,10-19.3,17.38a156.33,156.33,0,0,0-27,58.33A148.7,148.7,0,0,0,76,120.45Z"/><path class="cls-4" d="M96.72,85.32c-1.93,7.19-4.5,15.19-11.28,18.61-3.83,1.94-8.34,2-12.66,1.95A314.15,314.15,0,0,1,21.38,101c-4.23-.76-8.8-1.82-11.45-5.1C8,93.5,7.47,90.42,7.07,87.46a128.11,128.11,0,0,1,7-61.89c1.22-3.26,2.68-6.62,5.45-8.81,5-4,12.26-2.88,18.62-1.83a231.06,231.06,0,0,0,38.61,3c6.27,0,28.6-5.12,32.9-.65,4.57,4.76-2.9,27.37-4.2,33.34C102.91,62.28,99.81,73.8,96.72,85.32Z"/><path class="cls-5" d="M122.24,135.36c-12.33,18.75-16.42,41.35-20.25,63.28,33.14-6.87,67.47-22,83-51.24,5.16-9.76,16.52-64.67-4.92-59-10.54,2.78-23.05,13.6-31.59,20C138.37,116.07,129.14,124.86,122.24,135.36Z"/><path class="cls-6" d="M39.66,121.44a52.64,52.64,0,0,1,28.7-2.77c-17.9-16.81-16.84-35.85-17.88-48.76C63.08,85,71.24,90.24,83.84,105.32c-3-23.32-9.44-37.7.28-59.22C87.71,49.78,98.41,80.29,101,95.52A268.9,268.9,0,0,1,140,51a200.17,200.17,0,0,1-14.33,50.41q18.55-9.83,38-17.88A452.2,452.2,0,0,1,130,134.21c-3.32,4.35-6.81,8.72-11.44,11.73-10.39,6.77-30.39,2-41.67-1.35A82.73,82.73,0,0,1,39.66,121.44Z"/><path class="cls-7" d="M31.05,140.48a2.91,2.91,0,0,1,1-1.73c1.37-1,3.2.56,3.91,2.07s1.42,3.4,3.11,3.65c2.32.34,3.4-2.66,3.69-4.92.52-4.05,1.43-8.3,4.29-11.3s8.25-4,11.22-1.13c1.47,1.44,2.06,3.49,2.55,5.46.95,3.79,1.71,7.63,2.29,11.49l13-8c2.9-1.8,5.91-3.63,9.31-4.18s7.32.51,9.07,3.39c2.18,3.57.29,8.14-2,11.64a28,28,0,0,0-2.18,3.64,10.65,10.65,0,0,0,.87,10.07c2.54.23,4.21,3,4,5.46s-1.88,4.59-3.69,6.34A12.73,12.73,0,0,1,85.47,176c-5.49,1.2-11.25-3.29-16.56-1.49-2.9,1-4.82,3.59-7.25,5.4s-6.41,2.61-8.24.22c-1.25-1.64-.92-4.15-2.41-5.59-2.67-2.6-7.11.15-10.06-2.47-1.87-1.66-2.66-5.77-3.78-8C33.3,156.52,28.73,149.34,31.05,140.48Z"/><rect class="cls-8" x="39.66" y="26.88" width="136.01" height="132.14"/></svg>