<svg id="Layer_1" data-name="Layer 1" xmlns="http://www.w3.org/2000/svg" viewBox="0 0 1600 1600"><defs><style>.cls-1{fill:#fad0ce;}.cls-2{fill:#91aecc;}.cls-3{fill:#e6ff2a;}.cls-4{fill:#bdd0e5;}.cls-5{fill:#b1a09f;}.cls-6{fill:#f7ffbb;}.cls-7{fill:#fff;}.cls-8{fill:#f2f2f2;}.cls-9{fill:#d6e3f0;}.cls-10{fill:#fad8e7;stroke:#fad8e7;stroke-width:0.5px;}.cls-10,.cls-11,.cls-14,.cls-15,.cls-16{stroke-miterlimit:10;}.cls-11,.cls-14,.cls-15,.cls-16{fill:#296cb2;stroke:#296cb2;}.cls-11,.cls-15{stroke-width:0.63px;}.cls-12{fill:#ffead0;}.cls-13{fill:#ffd005;}.cls-14{stroke-width:0.63px;}.cls-15{opacity:0.66;}.cls-16{stroke-width:0.63px;}</style></defs><title>tiles</title><rect class="cls-1" x="800" y="600" width="200" height="200"/><rect class="cls-2" x="600" y="400" width="199.9" height="201.45"/><rect class="cls-3" x="400" y="400" width="200" height="200" transform="translate(1000 0) rotate(90)"/><rect class="cls-1" y="400" width="200" height="200" transform="translate(600 400) rotate(90)"/><polygon class="cls-4" points="0 200 200 400 0 600 0 200"/><g id="qsX0iN.tif"><path class="cls-1" d="M904.89,495.06c9.44,0,16.73-3.74,22.25-11,9.35-12.35,27-14.38,38.5-4.11,7.9,7.06,11.17,16.07,8.38,26.5s-9.68,17.44-20.41,19.51-19.66-1.16-26.4-10c-5.22-6.83-12-10.75-20.66-11a15.7,15.7,0,0,0-1.72.14c.16,9.29,3.78,16.6,11,22.13a26.52,26.52,0,1,1-32.07.17c7.38-5.55,11.15-12.87,11.31-22.41a24.68,24.68,0,0,0-18,6.36,45.19,45.19,0,0,0-4.94,5.48,26.39,26.39,0,0,1-31,7.56c-10.58-4.65-17.45-16.45-15.92-27.33,1.74-12.37,10.93-21.82,22.82-23.32,10.3-1.29,18.57,2.19,24.92,10.52,5.44,7.14,12.67,10.95,22.1,10.76a24.89,24.89,0,0,0-6.46-17.93,48.63,48.63,0,0,0-5.5-4.92,26.47,26.47,0,0,1-7.1-31.81c5.23-11,17.58-17.28,29.07-14.82a26.74,26.74,0,0,1,21.33,25c.31,9.44-3.28,16.84-10.84,22.56A25.59,25.59,0,0,0,904.89,495.06Z"/></g><polygon class="cls-5" points="400 800 500 600 600 800 400 800"/><path class="cls-6" d="M300,500l-100,.48V500c0-54.86,45.14-100,100-100s100,45.14,100,100Z"/><polygon class="cls-1" points="1100.56 0.61 1199.43 100.56 1199.45 0.56 1100.56 0.61"/><polygon class="cls-6" points="650.16 400 600.21 499.88 650.16 599.76 700.11 499.88 650.16 400"/><polygon class="cls-6" points="750.05 400 700.11 499.88 750.05 599.76 800 499.88 750.05 400"/><circle class="cls-4" cx="900" cy="100" r="100"/><rect class="cls-2" x="600" width="200" height="200"/><rect class="cls-6" x="400.96" y="-0.96" width="200" height="201.93" transform="translate(600.96 -400.96) rotate(90)"/><circle class="cls-1" cx="300" cy="300" r="100"/><rect class="cls-1" x="400" y="200" width="200" height="200" transform="translate(800 -200) rotate(90)"/><rect class="cls-2" x="1399.39" y="200.61" width="200" height="198.78" transform="translate(1799.39 -1199.39) rotate(90)"/><polygon class="cls-1" points="1598.78 200.83 1498.78 301.02 1600 400 1598.78 200.83"/><rect class="cls-7" x="828.43" y="629.64" width="142.13" height="140.71" transform="translate(758.43 -431.02) rotate(45)"/><rect class="cls-5" x="1400" width="200" height="200" transform="translate(3000 200) rotate(-180)"/><polygon class="cls-8" points="1450 200 1500 100 1450 0 1400 100 1450 200"/><rect class="cls-1" x="475" y="425" width="50" height="150"/><rect class="cls-1" x="475" y="425" width="50" height="150" transform="translate(0 1000) rotate(-90)"/><polygon class="cls-7" points="600 200.09 700 300 800 200.09 600 200.09"/><rect class="cls-5" x="800" y="1400" width="200" height="200" transform="translate(2400 600) rotate(90)"/><rect class="cls-6" x="800" y="800" width="400" height="200"/><rect class="cls-9" x="1000" y="1400" width="400" height="200"/><polygon class="cls-3" points="599.17 1400.87 400 1598.36 600 1600 599.17 1400.87"/><polygon class="cls-3" points="1050 1200 1000 1300 1050 1400 1100 1300 1050 1200"/><polygon class="cls-3" points="1150 1200 1100 1300 1150 1400 1200 1300 1150 1200"/><rect class="cls-10" x="1200" y="800" width="200" height="200"/><rect class="cls-11" x="668.85" y="1468.85" width="66.67" height="195.64" transform="translate(2268.85 864.49) rotate(90)"/><rect class="cls-11" x="600" y="1400" width="65.21" height="200"/><rect class="cls-3" x="800" y="1000" width="200" height="200"/><polygon class="cls-9" points="862.57 1174.63 825.09 1137.22 937.52 1025 975 1062.41 862.57 1174.63"/><polygon class="cls-9" points="975 1137.22 937.52 1174.63 825.09 1062.41 862.57 1025 975 1137.22"/><polygon class="cls-7" points="1001.47 802.68 902.81 901.74 1002.68 999.59 1001.47 802.68"/><rect class="cls-12" x="400" y="1099.23" width="100.44" height="100.77" transform="translate(900.44 2299.23) rotate(180)"/><rect class="cls-12" x="499.92" y="1000.54" width="100.16" height="100" transform="translate(-500.54 1600.54) rotate(-90)"/><rect class="cls-1" x="400.17" y="999.83" width="100.44" height="100.77" transform="translate(-599.83 1500.61) rotate(-90)"/><rect class="cls-1" x="499.38" y="1100" width="100.16" height="100"/><rect class="cls-2" x="1000" y="800" width="97.32" height="97.32" transform="translate(200 1897.32) rotate(-90)"/><rect class="cls-2" x="1100" y="900" width="99.54" height="100"/><circle class="cls-12" cx="898.66" cy="1501.34" r="48.66"/><polygon class="cls-3" points="600 1000 700 800 800 1000 600 1000"/><rect class="cls-2" x="200" y="800" width="200" height="200" transform="translate(600 1800) rotate(180)"/><polygon class="cls-12" points="600 600 800 800 798.78 600 600 600"/><rect class="cls-2" x="1000" y="400" width="200" height="200" transform="translate(1600 -600) rotate(90)"/><rect class="cls-1" x="1464.49" y="1135.51" width="66.67" height="195.64" transform="translate(264.49 2731.15) rotate(-90)"/><rect class="cls-1" x="1534.79" y="1200" width="65.21" height="200" transform="translate(3134.79 2600) rotate(180)"/><circle class="cls-12" cx="498.77" cy="898.77" r="51.23"/><polygon class="cls-1" points="1300 1199.07 1200 1100 1300 1000.93 1400 1100 1300 1199.07"/><rect class="cls-4" x="600" y="1000" width="200" height="200"/><g id="B8b26h.tif"><path class="cls-7" d="M800.15,1335.47c.23-.65.42-1.3.69-1.93a20.64,20.64,0,0,1,11.47-11.73,18.44,18.44,0,0,1,8.59-1.35,20.56,20.56,0,0,1,11.75,4.78,19.84,19.84,0,0,1,6.67,10.13,19.39,19.39,0,0,1-.81,12.55,32.51,32.51,0,0,1-5.42,8.86,77.86,77.86,0,0,1-8.83,8.87c-3.86,3.37-7.77,6.69-11.61,10.09a59.35,59.35,0,0,0-8.54,9,20.83,20.83,0,0,0-3.31,6.09c-.12.42-.17.86-.3,1.27,0,.16-.24.28-.37.42-.12-.13-.34-.24-.36-.38a14.65,14.65,0,0,0-2.29-5.46,40.51,40.51,0,0,0-6.92-8.19c-2.94-2.75-5.95-5.41-9-8-3.7-3.22-7.48-6.35-10.93-9.86a48,48,0,0,1-6.25-7.61,25.18,25.18,0,0,1-3.81-9.17,18.68,18.68,0,0,1,3.44-14.76,20.39,20.39,0,0,1,12.61-8.2,18.89,18.89,0,0,1,16.38,3.92,20.73,20.73,0,0,1,7,10.45c0,.08.05.15.08.22Z"/></g><rect class="cls-4" x="299.49" y="1499.49" width="100.44" height="100.59" transform="translate(1899.49 1200.08) rotate(90)"/><rect class="cls-4" x="200" y="1400" width="98.28" height="100" transform="translate(498.28 2900) rotate(180)"/><rect class="cls-1" y="1400" width="200" height="200"/><rect class="cls-6" x="7.74" y="1200" width="592.26" height="200"/><polygon class="cls-13" points="200 1150.48 252.63 1100.95 305.26 1150.48 252.63 1200 200 1150.48"/><polygon class="cls-13" points="200 1051.43 252.63 1001.91 305.26 1051.43 252.63 1100.95 200 1051.43"/><rect class="cls-4" x="600" y="1200" width="200" height="200" transform="translate(1400 2600) rotate(180)"/><rect class="cls-4" x="200" y="1000.12" width="200" height="199.42"/><ellipse class="cls-7" cx="255.17" cy="1144.61" rx="30.17" ry="30.39"/><ellipse class="cls-7" cx="344.83" cy="1055.39" rx="30.17" ry="30.39"/><ellipse class="cls-7" cx="255.17" cy="1055.39" rx="30.17" ry="30.39"/><ellipse class="cls-7" cx="344.83" cy="1144.61" rx="30.17" ry="30.39"/><polygon class="cls-4" points="151.55 1400 103.17 1300.25 151.63 1200.33 200 1300.08 151.55 1400"/><polygon class="cls-4" points="7.74 1299.31 55.9 1200 104.06 1299.31 55.9 1398.62 7.74 1299.31"/><g id="qsX0iN.tif-2" data-name="qsX0iN.tif"><path class="cls-2" d="M702,1306.28c-8.11,8.15-11.21,17.59-9.7,28.57,2.55,18.63-10.93,35.55-29.66,36.61-12.89.73-23.46-4.19-30-15.52s-6.67-23.28.81-34.28c7.37-10.83,17.94-15.9,31.32-14.14,10.37,1.36,19.57-1.07,27.31-8.29a18.67,18.67,0,0,0,1.36-1.6c-8.12-7.83-17.54-11-28.57-9.48a32.2,32.2,0,0,1-28.07-54,32.54,32.54,0,0,1,37.54-7,32,32,0,0,1,18,33.21c-1.58,11.11,1.46,20.62,9.53,28.94a30,30,0,0,0,10.07-20.94,53.71,53.71,0,0,0-.46-9,32.11,32.11,0,0,1,20.25-33.14c13.12-5.1,29.19-.89,37.24,9.76,9.14,12.1,9.35,28.11.39,39.61-7.76,10-17.89,14.08-30.54,12.39-10.83-1.45-20.34,1.5-28.31,9.75,5.84,6.05,12.74,9.45,21,9.84a58.8,58.8,0,0,0,9-.51A32.16,32.16,0,0,1,774,1328.38c4.94,13.91-.29,29.91-12.31,37.68-12.68,8.2-29.18,6.88-39.88-3.1-8.4-7.82-11.67-17.26-10.08-28.66C713.2,1323.63,710.24,1314.24,702,1306.28Z"/></g><g id="B8b26h.tif-2" data-name="B8b26h.tif"><path class="cls-11" d="M500,1256.32c.43-1.33.8-2.7,1.29-4,4.22-11.33,11.26-19.64,21.58-24.38a31.61,31.61,0,0,1,16.16-2.8,36.81,36.81,0,0,1,22.09,9.93,41.81,41.81,0,0,1,12.55,21,44.2,44.2,0,0,1-1.53,26.1A69.35,69.35,0,0,1,562,1300.64a153.68,153.68,0,0,1-16.62,18.43c-7.26,7-14.61,13.92-21.83,21a119.32,119.32,0,0,0-16.06,18.78,44.05,44.05,0,0,0-6.22,12.66c-.24.87-.32,1.78-.57,2.64-.1.34-.45.58-.69.87-.24-.26-.64-.5-.69-.79a32.11,32.11,0,0,0-4.3-11.35,84.48,84.48,0,0,0-13-17c-5.53-5.7-11.2-11.24-16.9-16.72-7-6.7-14.08-13.21-20.56-20.5a98.61,98.61,0,0,1-11.77-15.82,55.21,55.21,0,0,1-7.15-19.08,41.93,41.93,0,0,1,6.45-30.67c5.93-9,13.9-14.76,23.74-17.06,11.37-2.65,21.71.14,30.8,8.15a43.75,43.75,0,0,1,13.19,21.74,4,4,0,0,0,.15.45Z"/></g><circle class="cls-12" cx="1301.23" cy="898.77" r="51.23"/><rect class="cls-1" x="1075" y="425" width="50" height="150"/><rect class="cls-1" x="1075" y="425" width="50" height="150" transform="translate(600 1600) rotate(-90)"/><rect class="cls-2" x="200" width="200" height="200"/><polygon class="cls-4" points="262.57 174.63 225.09 137.22 337.52 25 375 62.41 262.57 174.63"/><polygon class="cls-4" points="375 137.22 337.52 174.63 225.09 62.41 262.57 25 375 137.22"/><rect class="cls-6" x="1200" y="1200" width="200" height="200"/><polygon class="cls-11" points="1262.57 1374.63 1225.09 1337.22 1337.52 1225 1375 1262.41 1262.57 1374.63"/><polygon class="cls-11" points="1375 1337.22 1337.52 1374.63 1225.09 1262.41 1262.57 1225 1375 1337.22"/><polygon class="cls-13" points="1200 350.36 1252.63 300.84 1305.26 350.36 1252.63 399.88 1200 350.36"/><polygon class="cls-13" points="1200 251.32 1252.63 201.79 1305.26 251.32 1252.63 300.84 1200 251.32"/><rect class="cls-12" x="1200" y="200" width="200" height="199.42"/><ellipse class="cls-7" cx="1255.17" cy="344.5" rx="30.17" ry="30.39"/><ellipse class="cls-7" cx="1344.83" cy="255.27" rx="30.17" ry="30.39"/><ellipse class="cls-7" cx="1255.17" cy="255.27" rx="30.17" ry="30.39"/><ellipse class="cls-7" cx="1344.83" cy="344.5" rx="30.17" ry="30.39"/><polygon class="cls-13" points="0 150.48 52.63 100.95 105.26 150.48 52.63 200 0 150.48"/><polygon class="cls-13" points="0 51.43 52.63 1.91 105.26 51.43 52.63 100.95 0 51.43"/><rect class="cls-5" y="0.12" width="200" height="199.42"/><ellipse class="cls-7" cx="55.17" cy="144.61" rx="30.17" ry="30.39"/><ellipse class="cls-7" cx="144.83" cy="55.39" rx="30.17" ry="30.39"/><ellipse class="cls-7" cx="55.17" cy="55.39" rx="30.17" ry="30.39"/><ellipse class="cls-7" cx="144.83" cy="144.61" rx="30.17" ry="30.39"/><rect class="cls-6" x="1200" y="400" width="400" height="200"/><rect class="cls-2" x="1402.68" y="400" width="97.32" height="97.32" transform="translate(1002.68 1900) rotate(-90)"/><rect class="cls-2" x="1500" y="500" width="99.54" height="100"/><rect class="cls-14" y="597.34" width="200" height="202.66"/><rect class="cls-4" x="1000" y="1000" width="200" height="200"/><rect class="cls-2" x="1396.2" y="803.73" width="203.8" height="196.27"/><path class="cls-3" d="M1403.87,1398.19l-1.55,189.31c-53.78-.38-105.27-20.51-143.15-56S1200,1448.13,1200,1398.19Z"/><path class="cls-3" d="M800,200l-1.52,200A201.4,201.4,0,0,1,658,341.67c-37.16-36.94-58-89.61-58-141.67Z"/><path class="cls-3" d="M200,600l200,1.52A201.4,201.4,0,0,1,341.67,742c-36.94,37.16-89.61,58-141.67,58Z"/><rect class="cls-6" x="800" y="1200" width="200" height="200"/><polygon class="cls-7" points="1000 1200 900 1300 1000 1400 1000 1200"/><g id="qsX0iN.tif-3" data-name="qsX0iN.tif"><path class="cls-7" d="M701,107.21c-8.11,8.15-11.21,17.58-9.71,28.57,2.56,18.63-10.92,35.55-29.65,36.61-12.89.73-23.46-4.19-30-15.53s-6.67-23.28.81-34.27c7.37-10.84,17.94-15.9,31.32-14.14,10.37,1.36,19.57-1.07,27.31-8.29a20.37,20.37,0,0,0,1.36-1.6c-8.13-7.84-17.54-11-28.57-9.48a32.2,32.2,0,0,1-28.07-54,32.54,32.54,0,0,1,37.54-6.95,32,32,0,0,1,18,33.21c-1.58,11.1,1.47,20.62,9.54,28.94a30,30,0,0,0,10.07-21,54.73,54.73,0,0,0-.46-8.94,32.11,32.11,0,0,1,20.25-33.14C743.89,22.18,760,26.39,768,37c9.14,12.1,9.34,28.1.38,39.61-7.75,10-17.88,14.07-30.53,12.39-10.84-1.45-20.34,1.5-28.31,9.75,5.84,6,12.74,9.45,21,9.84a60.11,60.11,0,0,0,9-.51A32.16,32.16,0,0,1,773,129.3c4.94,13.92-.29,29.92-12.31,37.69-12.68,8.2-29.18,6.88-39.89-3.1-8.39-7.83-11.66-17.26-10.07-28.66C712.25,124.56,709.29,115.17,701,107.21Z"/></g><rect class="cls-11" x="1400" y="1000" width="200" height="200" transform="translate(3000 2200) rotate(-180)"/><polygon class="cls-4" points="1550 1200 1600 1100 1550 1000 1500 1100 1550 1200"/><polygon class="cls-4" points="1450 1200 1500 1100 1450 1000 1400 1100 1450 1200"/><rect class="cls-1" x="1200" y="699.41" width="100.44" height="100.59" transform="translate(2500.44 1499.41) rotate(180)"/><rect class="cls-1" x="1300.86" y="599.14" width="98.28" height="100" transform="translate(700.86 1999.14) rotate(-90)"/><rect class="cls-15" x="1200" width="200" height="200" transform="translate(1400 -1200) rotate(90)"/><rect class="cls-4" x="1000" y="200" width="200" height="200" transform="translate(2200 600) rotate(180)"/><rect class="cls-11" x="1000" y="600" width="200" height="200"/><circle class="cls-12" cx="1101.23" cy="698.77" r="51.23"/><circle class="cls-4" cx="1500" cy="700" r="100"/><rect class="cls-6" x="-100" y="900" width="400" height="200" transform="translate(-900 1100) rotate(-90)"/><polygon class="cls-7" points="2.68 998.53 101.74 1097.19 199.59 997.32 2.68 998.53"/><polygon class="cls-8" points="1550 200 1600 100 1550 0 1500 100 1550 200"/><polygon class="cls-1" points="1099.44 199.39 1000.05 99.43 1000.03 199.43 1099.44 199.39"/><polygon class="cls-5" points="1500.53 1401.18 1599.39 1501.13 1599.41 1401.13 1500.53 1401.18"/><polygon class="cls-5" points="1499.41 1599.96 1400.02 1500 1400 1600 1499.41 1599.96"/><polygon class="cls-5" points="0 898.58 100 800 0 799.4 0 898.58"/><polygon class="cls-5" points="200 900 100 1000 200 1000 200 900"/><polygon class="cls-11" points="800.05 298.89 900 200.02 800 200 800.05 298.89"/><polygon class="cls-16" points="1000 300 898.87 399.4 1000 400 1000 300"/></svg>